<svg xmlns="http://www.w3.org/2000/svg"  viewBox="0 0 24 24" fill="none"><path fill="currentColor" d="M23.806 14.497c-.124-.137-2.258-2.459-5.719-3.803-.161-1.727-.793-3.297-1.82-4.492C14.895 4.594 12.899 3.75 10.5 3.75c-4.83 0-7.979 4.33-8.11 4.514a.75.75 0 0 0 1.218.873c.03-.039 2.843-3.887 6.892-3.887 1.947 0 3.55.667 4.632 1.928.696.81 1.167 1.846 1.376 3a13.209 13.209 0 0 0-3.327-.428c-2.443 0-4.493.638-5.93 1.846-1.272 1.069-2 2.56-2 4.084a4.461 4.461 0 0 0 1.3 3.192c.905.902 2.161 1.378 3.63 1.378 4.858 0 7.61-3.95 7.921-7.914a15.136 15.136 0 0 1 4.594 3.167.75.75 0 1 0 1.112-1.006h-.002Zm-8.856 2.028c-.827 1.015-2.326 2.225-4.769 2.225-2.37 0-3.43-1.542-3.43-3.07 0-2.134 2.012-4.43 6.43-4.43 1.17.004 2.332.183 3.448.533-.042 1.758-.648 3.478-1.679 4.742Z"/></svg>