<svg xmlns="http://www.w3.org/2000/svg" viewBox="0 0 24 24" fill="none"><path fill="currentColor" d="M19.282 17.78a1.369 1.369 0 0 0 0 1.94.75.75 0 1 1-1.061 1.06 2.872 2.872 0 0 1 0-4.06l.879-.879a1.373 1.373 0 0 0-1.944-1.94l-6.255 6.255A2.871 2.871 0 0 1 6.844 16.1l9.255-9.255A1.372 1.372 0 1 0 14.156 4.9l-6.255 6.255A2.871 2.871 0 0 1 3.844 7.1L7.72 3.22a.75.75 0 1 1 1.06 1.062L4.9 8.156A1.374 1.374 0 1 0 6.845 10.1L13.1 3.845A2.872 2.872 0 0 1 17.156 7.9l-9.255 9.255A1.374 1.374 0 0 0 9.844 19.1l6.255-6.255a2.872 2.872 0 0 1 4.057 4.057l-.874.88Z"/></svg>